<?xml version="1.0" encoding="utf-8"?>
<!-- Generator: Adobe Illustrator 21.1.0, SVG Export Plug-In . SVG Version: 6.00 Build 0)  -->
<svg version="1.1" id="Layer_1" xmlns="http://www.w3.org/2000/svg" xmlns:xlink="http://www.w3.org/1999/xlink" x="0px" y="0px"
	 viewBox="0 0 1612.8 783.3" style="enable-background:new 0 0 1612.8 783.3;" xml:space="preserve">
<style type="text/css">
	.st0{opacity:0.64;enable-background:new    ;}
	.st1{opacity:0.82;enable-background:new    ;}
	.st2{fill:#3FBFAD;}
	.st3{fill:#FFFFFF;stroke:#FFFFFF;stroke-width:0.3925;stroke-miterlimit:10;}
</style>
<circle class="st0" cx="806.4" cy="391.7" r="388.5"/>
<circle class="st1" cx="805.6" cy="392.5" r="303.7"/>
<path class="st2" d="M1167.3,239.2c-19.7-46.6-48-88.5-83.9-124.5c-36-36-77.9-64.2-124.5-83.9C910.6,10.4,859.3,0,806.4,0
	c-52.9,0-104.2,10.4-152.5,30.8c-46.6,19.7-88.5,48-124.5,83.9c-36,36-64.2,77.9-83.9,124.5c-20.4,48.3-30.8,99.6-30.8,152.5
	c0,52.9,10.4,104.2,30.8,152.5c19.7,46.6,48,88.5,83.9,124.5c36,36,77.9,64.2,124.5,83.9c48.3,20.4,99.6,30.8,152.5,30.8
	s104.2-10.4,152.5-30.8c46.6-19.7,88.5-48,124.5-83.9c36-36,64.2-77.9,83.9-124.5c20.4-48.3,30.8-99.6,30.8-152.5
	C1198.1,338.8,1187.7,287.5,1167.3,239.2z M806.4,777.1C593.9,777.1,421,604.2,421,391.7S593.9,6.3,806.4,6.3
	s385.4,172.9,385.4,385.4S1018.9,777.1,806.4,777.1z"/>
<path class="st2" d="M1022.6,175.5c-58-58-135-89.9-217-89.9s-159,31.9-217,89.9s-89.9,135-89.9,217s31.9,159,89.9,217
	s135,89.9,217,89.9s159-31.9,217-89.9s89.9-135,89.9-217S1080.6,233.4,1022.6,175.5z M805.6,693C639.9,693,505,558.2,505,392.5
	S639.8,91.9,805.6,91.9c165.7,0,300.6,134.8,300.6,300.6C1106.2,558.2,971.4,693,805.6,693z"/>
<path class="st3" d="M709.8,79c2.5-0.8,4.2-1.7,5.1-2.9c0.9-1.2,1.1-2.6,0.6-4.1c-0.3-0.9-0.7-1.6-1.3-2.2c-0.6-0.5-1.3-1-2.2-1.3
	s-1.9-0.5-3.1-0.7c-1.2-0.1-2.5-0.2-3.9-0.3c-1.5-0.1-2.9-0.2-4.3-0.4c-1.4-0.2-2.7-0.6-3.9-1.1c-1.2-0.6-2.3-1.3-3.2-2.3
	c-0.9-1-1.6-2.3-2.1-4c-1.1-3.4-0.7-6.5,1.1-9.2s4.7-4.7,8.8-5.9c2.4-0.7,4.6-1.1,6.6-1.1s3.6,0.1,4.9,0.4l-0.4,6.3
	c-1.5-0.3-3-0.4-4.6-0.3c-1.6,0.1-3.2,0.4-4.8,0.9c-1.9,0.6-3.2,1.4-4,2.5s-1,2.3-0.6,3.7c0.3,0.8,0.7,1.5,1.2,2s1.2,0.9,2,1.2
	s1.7,0.5,2.7,0.6s2,0.2,3.2,0.3c2,0.1,3.8,0.3,5.4,0.5c1.6,0.2,3.1,0.7,4.3,1.3c1.3,0.6,2.3,1.5,3.2,2.6s1.6,2.6,2.2,4.4
	c1,3.4,0.6,6.5-1.2,9.1c-1.9,2.6-5.1,4.7-9.8,6.1c-1.6,0.5-3,0.8-4.4,1s-2.6,0.3-3.7,0.3c-1.1,0-2.1,0-2.9-0.1
	c-0.8-0.1-1.5-0.2-2-0.3l0.3-6.3c1.2,0.2,2.7,0.4,4.5,0.4C705.3,80,707.4,79.7,709.8,79z M799.8,29.6c5.7-0.1,10.2,0.9,13.2,3
	c3.1,2.1,4.6,5.3,4.7,9.6c0.1,5.4-2.6,9.1-7.9,11.1c0.7,0.9,1.6,1.9,2.5,3.2s1.9,2.6,2.9,4.1s1.9,3,2.8,4.5c0.9,1.5,1.7,3.1,2.4,4.5
	l-8.1,0.1c-0.7-1.4-1.5-2.8-2.4-4.1c-0.9-1.4-1.7-2.7-2.6-4c-0.9-1.3-1.7-2.5-2.6-3.7c-0.9-1.2-1.7-2.2-2.4-3.1
	c-0.5,0-1,0.1-1.4,0.1s-0.7,0-1.1,0h-3.5l0.2,15.1l-7.2,0.1l-0.5-39.3c1.8-0.4,3.6-0.7,5.6-0.8C796.4,29.7,798.2,29.6,799.8,29.6z
	 M800.4,35.8c-1.5,0-3,0.1-4.3,0.2l0.2,12.9h3.2c1.8,0,3.3-0.1,4.7-0.3c1.3-0.2,2.5-0.6,3.3-1.1c0.9-0.5,1.6-1.2,2-2
	s0.7-1.9,0.7-3.2c0-1.2-0.3-2.3-0.7-3.1c-0.5-0.8-1.1-1.5-2-2s-1.9-0.8-3.1-1C803.1,35.9,801.8,35.8,800.4,35.8z M908.9,86.3
	c-0.6-2.5-1.3-5.1-2.2-8c-0.8-2.9-1.7-5.8-2.6-8.7c-0.9-2.9-1.9-5.8-2.9-8.6s-2-5.4-3-7.7L890,80.6l-6.8-2.1l11.5-38.1l5.7,1.7
	c1,2,2,4.3,3.1,6.9c1.1,2.6,2.1,5.3,3.1,8.1c1,2.8,2,5.6,2.9,8.3c0.9,2.8,1.7,5.3,2.3,7.7l7.6-25.3l6.9,2.1L914.8,88L908.9,86.3z"/>
<path class="st3" d="M546,599.4c-1.2-0.3-2.2-0.1-3.2,0.7c-0.6,0.5-1,1-1.2,1.6s-0.3,1.3-0.3,2c0.1,0.7,0.2,1.5,0.4,2.3
	c0.2,0.9,0.5,1.8,0.8,2.7c0.5,1.6,1,3.1,1.3,4.5s0.5,2.6,0.3,3.9s-0.5,2.4-1.1,3.5c-0.6,1.1-1.5,2.2-2.8,3.2c-2.4,2-5,2.6-7.7,2
	c-2.7-0.6-5.4-2.6-8.1-5.9c-0.9-1.1-1.7-2.2-2.3-3.2c-0.6-1.1-1.1-2-1.5-2.9s-0.7-1.7-0.9-2.4s-0.3-1.2-0.4-1.7l5.2-1.8
	c0.1,1,0.5,2.3,1.1,3.8c0.6,1.5,1.5,3.1,2.9,4.8c1.4,1.7,2.8,2.8,4,3.1c1.2,0.4,2.4,0.1,3.5-0.8c0.6-0.6,1.1-1.2,1.3-1.8
	c0.2-0.7,0.3-1.4,0.3-2.2s-0.1-1.7-0.4-2.7s-0.7-2.1-1.1-3.3c-0.4-1.2-0.8-2.4-1.1-3.6c-0.3-1.2-0.5-2.4-0.4-3.5
	c0-1.1,0.3-2.2,0.8-3.3s1.3-2.1,2.5-3c2.5-2,5.1-2.7,7.8-2.1c2.7,0.6,5.3,2.3,7.6,5.2c1.4,1.6,2.4,3.3,3.1,4.9s1.1,3,1.3,4.1
	l-5.2,1.7c-0.2-1.3-0.6-2.5-1.2-3.8c-0.6-1.3-1.3-2.5-2.2-3.6C548.1,600.5,546.9,599.7,546,599.4z M570.8,619.3l-24.7,24.3l4.4,4.5
	l24.7-24.3L570.8,619.3z M600.7,660.9c-3,3.6-6.8,4.6-11.4,2.9c0,1,0,2.1-0.1,3.5c-0.1,1.3-0.2,2.8-0.4,4.3
	c-0.2,1.6-0.4,3.1-0.7,4.6c-0.3,1.6-0.6,3-1,4.4l-5.4-4.5c0.2-1.3,0.5-2.7,0.7-4.1c0.3-1.4,0.4-2.7,0.6-4.1c0.2-1.3,0.3-2.7,0.4-3.9
	c0.1-1.2,0.2-2.4,0.2-3.4c-0.4-0.2-0.7-0.5-1-0.7c-0.2-0.2-0.5-0.4-0.7-0.6l-2.3-1.9l-8.3,10.1l-4.8-4l21.7-26.3
	c1.4,0.7,2.8,1.6,4.2,2.6s2.6,1.9,3.7,2.8c3.9,3.2,6.2,6.3,7.1,9.4C604.1,655.1,603.3,658,600.7,660.9z M596.9,651.8
	c-0.3-0.8-0.8-1.6-1.5-2.4c-0.6-0.8-1.5-1.6-2.4-2.4c-1-0.8-2-1.6-2.9-2.2l-7.1,8.6l2.1,1.7c1.2,1,2.3,1.8,3.3,2.4
	c1,0.6,1.9,1,2.8,1.2s1.7,0.1,2.5-0.2c0.7-0.3,1.5-0.9,2.2-1.8s1.1-1.7,1.3-2.5C597.3,653.4,597.2,652.6,596.9,651.8z M622,662.5
	l-19.2,28.8l5.2,3.5l19.2-28.8L622,662.5z M652,706.7c-0.2-2.1-0.4-4.4-0.7-6.9s-0.7-5-1.1-7.6c-0.4-2.5-0.9-5-1.3-7.4
	c-0.5-2.4-1-4.5-1.5-6.4l-4.6-2.4l-16,30.7l5.5,2.9l11.4-22c0.5,2.1,0.9,4.5,1.3,7c0.4,2.6,0.8,5.2,1.1,7.8c0.3,2.7,0.6,5.3,0.8,7.8
	c0.2,2.6,0.4,5,0.5,7.2l4.7,2.5l16-30.7l-5.5-2.9L652,706.7z M722.9,708.8l-6.1-1.6l-8.6,33.5l21.2,5.5l1.3-5.3l-15.1-3.9
	L722.9,708.8z M775.1,742.9c0.8,3.2,1.6,6.8,2.4,10.6l-6.7-0.9c-0.3-1.4-0.6-2.8-0.9-4.2c-0.3-1.3-0.6-2.8-0.9-4.2l-14.5-1.8
	c-0.6,1.3-1.2,2.6-1.9,3.9c-0.6,1.3-1.3,2.5-1.9,3.8l-6.5-0.8c1.8-3.5,3.5-6.7,5-9.7s3-5.8,4.5-8.4s2.9-5.1,4.3-7.5
	c1.4-2.4,2.8-4.7,4.3-7l6,0.8c0.8,2.6,1.6,5.3,2.4,7.9s1.5,5.4,2.3,8.3C773.7,736.6,774.5,739.7,775.1,742.9z M768.1,738.9
	c-0.7-3.1-1.3-5.9-2-8.6s-1.3-4.9-1.8-6.7c-1,1.7-2.1,3.7-3.4,6.1c-1.3,2.4-2.7,5-4.1,7.8L768.1,738.9z M821.2,739
	c1,1.4,1.5,3.1,1.5,5.2c0.1,3.5-1.2,6.2-3.8,8c-2.6,1.7-6.5,2.7-11.9,2.7c-1.8,0.1-3.6,0-5.5-0.1c-1.9-0.1-3.5-0.3-4.9-0.7
	l-0.2-33.6c0.7-0.2,1.5-0.3,2.3-0.4s1.6-0.2,2.5-0.3c0.9-0.1,1.8-0.2,2.6-0.2c0.8-0.1,1.6-0.1,2.4-0.1c2.1,0,4,0.1,5.8,0.4
	s3.4,0.8,4.7,1.5c1.3,0.8,2.4,1.7,3.1,2.9c0.7,1.2,1.1,2.6,1.1,4.4c0.1,1.6-0.3,3-1.1,4.2s-1.9,2.1-3.3,2.8
	C818.6,736.3,820.1,737.4,821.2,739z M802.5,724.7l0.1,9h4.4c2.4-0.1,4.2-0.4,5.6-1.1c1.3-0.7,2-1.9,2-3.7c0-1.6-0.7-2.8-2.1-3.5
	s-3.2-1-5.5-1c-1,0-1.9,0.1-2.6,0.1C803.7,724.6,803,724.6,802.5,724.7z M816.2,744.1c0-2-0.8-3.3-2.2-4.1c-1.4-0.7-3.4-1.1-5.9-1.1
	h-5.5l0.1,10.5c0.7,0,1.4,0.1,2.2,0.1s1.5,0,2.2,0c1.3,0,2.5-0.1,3.6-0.3c1.1-0.2,2.1-0.5,2.9-0.9c0.8-0.4,1.4-1,1.9-1.7
	C816,745.9,816.2,745,816.2,744.1z M862.3,736.7c-0.6-1.1-1.4-2-2.4-2.7s-2.1-1.3-3.5-1.8c-1.3-0.4-2.9-0.9-4.6-1.2
	c-1-0.2-1.9-0.4-2.7-0.7s-1.5-0.6-2.2-0.9c-0.6-0.4-1.1-0.8-1.5-1.3s-0.6-1.1-0.7-1.9c-0.2-1.3,0.2-2.3,1-3.1
	c0.9-0.8,2.1-1.3,3.8-1.6c1.4-0.2,2.8-0.2,4.2,0s2.7,0.5,3.9,1l1.3-5.3c-1-0.4-2.4-0.8-4.1-1c-1.7-0.3-3.7-0.3-5.8,0
	c-3.7,0.5-6.5,1.7-8.4,3.8c-1.9,2-2.7,4.6-2.3,7.7c0.2,1.5,0.6,2.7,1.3,3.7c0.6,1,1.4,1.8,2.4,2.5c0.9,0.7,2,1.2,3.2,1.5
	c1.2,0.4,2.4,0.7,3.6,1c1.2,0.2,2.3,0.5,3.3,0.8s1.8,0.6,2.5,1s1.3,0.9,1.7,1.4s0.7,1.2,0.8,2.1c0.2,1.4-0.2,2.5-1.1,3.4
	c-0.9,0.9-2.5,1.5-4.8,1.8c-2.1,0.3-4,0.3-5.6,0s-2.9-0.6-3.8-1l-1.2,5.3c0.4,0.2,1,0.4,1.7,0.6c0.7,0.2,1.5,0.4,2.5,0.5
	c0.9,0.1,2,0.2,3.2,0.3c1.2,0,2.5,0,3.9-0.2c4.2-0.6,7.3-1.8,9.3-3.8s2.8-4.5,2.4-7.6C863.4,739.1,863,737.7,862.3,736.7z
	 M930.7,695.5l-25.9,9.3l1.8,5.2l10-3.6l9.9,27.4l5.9-2.2l-9.8-27.4l10-3.6L930.7,695.5z M983.1,697.8c0.2,2.4,0,4.7-0.6,6.7
	c-0.6,2.1-1.7,3.9-3.1,5.5s-3.2,2.9-5.2,4s-4.1,1.7-6.3,2c-2.2,0.2-4.3,0-6.3-0.6c-2-0.7-4-1.8-5.8-3.4s-3.4-3.7-4.8-6.3
	c-1.4-2.7-2.2-5.2-2.4-7.6c-0.3-2.4-0.1-4.6,0.6-6.7c0.7-2,1.8-3.9,3.2-5.5c1.5-1.6,3.2-3,5.2-4c2-1.1,4-1.7,6.2-2
	c2.1-0.3,4.3-0.1,6.3,0.6s4,1.8,5.8,3.4s3.4,3.7,4.8,6.3C982.1,692.8,982.9,695.4,983.1,697.8z M976.8,698.1
	c-0.3-1.6-0.9-3.2-1.8-4.9s-1.9-3.1-3-4.3c-1.1-1.2-2.3-2-3.6-2.6c-1.3-0.5-2.6-0.8-4-0.7c-1.4,0.1-2.8,0.5-4.2,1.2
	c-1.4,0.8-2.6,1.7-3.4,2.8c-0.9,1.1-1.4,2.3-1.7,3.7c-0.3,1.3-0.3,2.8,0,4.4c0.3,1.6,0.9,3.2,1.8,4.9s1.9,3.1,3,4.3
	c1.1,1.2,2.3,2,3.6,2.6s2.6,0.9,4,0.8c1.4-0.1,2.8-0.5,4.2-1.2c1.3-0.8,2.5-1.7,3.3-2.8c0.9-1.1,1.4-2.3,1.7-3.7
	C976.9,701.2,976.9,699.7,976.8,698.1z M1017.7,673.7c-2.1-0.5-4.1-0.9-6.1-1.2s-3.9-0.5-5.6-0.5c0.3-1.7,0.6-3.5,0.9-5.4
	c0.3-1.9,0.5-3.8,0.8-5.6c0.3-1.9,0.5-3.7,0.7-5.6c0.2-1.8,0.4-3.6,0.6-5.2l-6.1,4.4c-0.1,1.3-0.3,2.7-0.5,4.3s-0.4,3.3-0.6,5
	c-0.2,1.7-0.5,3.4-0.7,5.2c-0.2,1.7-0.5,3.3-0.8,4.9l-8.3-11.6l-5.1,3.7l20.1,28.1l5.1-3.7l-9-12.6c1.6,0,3.3,0.1,5.1,0.3
	s3.6,0.5,5.4,0.9c1.8,0.4,3.6,0.8,5.4,1.4c1.8,0.5,3.4,1.1,4.9,1.7l6.1-4.3c-1.9-0.8-3.8-1.5-5.9-2.2
	C1021.8,674.8,1019.8,674.2,1017.7,673.7z M1045.1,657.4l-6.9-7.5l10.4-9.6l-3.5-3.8l-10.4,9.6l-5.8-6.3l11.7-10.8l-3.6-3.9
	l-16.4,15.1l23.5,25.4l17.2-15.9l-3.6-3.9L1045.1,657.4z M1067.1,590.9l-4,4.8l17.7,14.7c-2.1-0.3-4.4-0.5-6.9-0.7s-5.1-0.4-7.6-0.5
	c-2.6-0.1-5.1-0.2-7.5-0.3c-2.4,0-4.6,0-6.6,0.1l-3.3,4l26.6,22.1l4-4.8l-19-15.8c2.2,0,4.6,0.1,7.1,0.2c2.6,0.1,5.2,0.3,7.9,0.6
	c2.7,0.3,5.3,0.6,7.8,0.9c2.6,0.3,4.9,0.6,7.1,1l3.4-4.1L1067.1,590.9z"/>
<rect y="389.3" class="st2" width="417.9" height="4.7"/>
<rect x="210.5" y="293.5" class="st2" width="218.8" height="4.7"/>
<rect x="210.5" y="485" class="st2" width="218.8" height="4.7"/>
<path class="st2" d="M183.8,323.4c-7.2,0-14-2.8-19.3-7.8c-5.3-5.1-8.3-12.1-8.5-19.5s2.6-14.4,7.8-19.8c5.1-5.3,12.1-8.3,19.5-8.5
	l0,0c7.4-0.1,14.4,2.6,19.8,7.8c5.3,5.1,8.3,12.1,8.5,19.5s-2.6,14.4-7.8,19.8s-12.1,8.3-19.5,8.5
	C184.1,323.4,183.9,323.4,183.8,323.4z M183.4,272.6c-6.2,0.1-11.9,2.6-16.2,7c-4.3,4.4-6.6,10.3-6.5,16.4c0.1,6.2,2.6,11.9,7,16.2
	c4.4,4.3,10.3,6.6,16.4,6.5c6.2-0.1,11.9-2.6,16.2-7c4.3-4.4,6.6-10.3,6.5-16.4c-0.1-6.2-2.6-11.9-7-16.2
	C195.4,274.8,189.5,272.5,183.4,272.6L183.4,272.6z"/>
<path class="st2" d="M183.5,515.4c-15.1,0-27.5-12.1-27.7-27.3c-0.3-15.3,12-28,27.3-28.2c15.3-0.3,28,12,28.2,27.3
	c0.3,15.3-12,28-27.3,28.2C183.8,515.4,183.7,515.4,183.5,515.4z M183.5,464.6c-0.1,0-0.3,0-0.4,0c-12.7,0.2-22.9,10.7-22.6,23.4
	c0.2,12.6,10.5,22.6,23,22.6c0.1,0,0.3,0,0.4,0c12.7-0.2,22.9-10.7,22.6-23.4C206.3,474.7,196,464.6,183.5,464.6z"/>
<rect x="1195" y="389.3" class="st2" width="417.8" height="4.7"/>
<rect x="1183.5" y="293.3" class="st2" width="218.8" height="4.7"/>
<rect x="1181.8" y="484.8" class="st2" width="218.8" height="4.7"/>
<path class="st2" d="M1426.3,323.2c-0.2,0-0.3,0-0.5,0c-7.4-0.1-14.3-3.1-19.5-8.5c-5.1-5.3-7.9-12.4-7.8-19.8s3.1-14.3,8.5-19.5
	c5.2-5,12-7.8,19.3-7.8c0.2,0,0.3,0,0.5,0c7.4,0.1,14.3,3.1,19.5,8.5c5.1,5.3,7.9,12.4,7.8,19.8s-3.1,14.3-8.5,19.5
	C1440.3,320.4,1433.5,323.2,1426.3,323.2z M1426.3,272.4c-6,0-11.7,2.3-16,6.5c-4.4,4.3-6.9,10-7,16.2l0,0c-0.1,6.2,2.2,12,6.5,16.4
	c4.3,4.4,10,6.9,16.2,7c6.2,0.1,12-2.2,16.4-6.5c4.4-4.3,6.9-10,7-16.2c0.1-6.2-2.2-12-6.5-16.4c-4.3-4.4-10-6.9-16.2-7
	C1426.5,272.4,1426.4,272.4,1426.3,272.4z"/>
<path class="st2" d="M1423,515.7c-0.2,0-0.4,0-0.6,0c-7.4-0.1-14-3.1-18.8-8.5c-4.6-5.2-7-12.2-6.9-19.7
	c0.2-15.1,12.6-27.2,27.8-27.2c0.1,0,0.3,0,0.4,0c15.2,0.2,27.4,12.9,27.2,28.2c-0.1,6.9-3.1,13.6-8.4,18.7
	C1438.1,512.6,1430.6,515.7,1423,515.7z M1424.5,465c-12.6,0-22.9,10.1-23.1,22.6c-0.1,6.3,2,12.2,5.8,16.5
	c3.9,4.4,9.3,6.8,15.3,6.9c6.5,0.1,13.1-2.5,17.9-7.2c4.4-4.3,6.9-9.7,7-15.4c0.1-6.2-2.2-12-6.5-16.4c-4.3-4.4-10-6.9-16.1-7
	C1424.8,465,1424.6,465,1424.5,465z"/>
</svg>
